<svg width="25" height="24" viewBox="0 0 25 24" fill="none" xmlns="http://www.w3.org/2000/svg">
<mask id="mask0_2_10" style="mask-type:alpha" maskUnits="userSpaceOnUse" x="0" y="0" width="25" height="24">
<rect x="0.5" width="24" height="24" fill="#D9D9D9"/>
</mask>
<g mask="url(#mask0_2_10)">
<path d="M9.75001 22L9.35001 18.8C9.13335 18.7167 8.92918 18.6167 8.73751 18.5C8.54585 18.3833 8.35835 18.2583 8.17501 18.125L5.20001 19.375L2.45001 14.625L5.02501 12.675C5.00835 12.5583 5.00001 12.4458 5.00001 12.3375V11.6625C5.00001 11.5542 5.00835 11.4417 5.02501 11.325L2.45001 9.375L5.20001 4.625L8.17501 5.875C8.35835 5.74167 8.55001 5.61667 8.75001 5.5C8.95001 5.38333 9.15001 5.28333 9.35001 5.2L9.75001 2H15.25L15.65 5.2C15.8667 5.28333 16.0708 5.38333 16.2625 5.5C16.4542 5.61667 16.6417 5.74167 16.825 5.875L19.8 4.625L22.55 9.375L19.975 11.325C19.9917 11.4417 20 11.5542 20 11.6625V12.3375C20 12.4458 19.9833 12.5583 19.95 12.675L22.525 14.625L19.775 19.375L16.825 18.125C16.6417 18.2583 16.45 18.3833 16.25 18.5C16.05 18.6167 15.85 18.7167 15.65 18.8L15.25 22H9.75001ZM12.55 15.5C13.5167 15.5 14.3417 15.1583 15.025 14.475C15.7083 13.7917 16.05 12.9667 16.05 12C16.05 11.0333 15.7083 10.2083 15.025 9.525C14.3417 8.84167 13.5167 8.5 12.55 8.5C11.5667 8.5 10.7375 8.84167 10.0625 9.525C9.38751 10.2083 9.05001 11.0333 9.05001 12C9.05001 12.9667 9.38751 13.7917 10.0625 14.475C10.7375 15.1583 11.5667 15.5 12.55 15.5Z" fill="white"/>
</g>
</svg>
