<svg width="20" height="20" viewBox="0 0 20 20" fill="none" xmlns="http://www.w3.org/2000/svg">
<path d="M19.2449 8.26119L11.0869 8.2608C10.7267 8.2608 10.4347 8.55275 10.4347 8.91298V11.519C10.4347 11.8792 10.7267 12.1712 11.0869 12.1712H15.6809C15.1779 13.4767 14.239 14.57 13.0411 15.2647L15 18.6556C18.1423 16.8383 20 13.6497 20 10.0803C20 9.57207 19.9626 9.20876 19.8876 8.79966C19.8307 8.48885 19.5608 8.26119 19.2449 8.26119Z" fill="#167EE6"/>
<path d="M9.99878 16.087C7.75054 16.087 5.78786 14.8587 4.73374 13.041L1.34283 14.9954C3.06845 17.9861 6.30107 20 9.99878 20C11.8128 20 13.5244 19.5116 14.9989 18.6605V18.6559L13.04 15.2649C12.1439 15.7846 11.107 16.087 9.99878 16.087Z" fill="#12B347"/>
<path d="M15.0002 18.6599V18.6553L13.0413 15.2643C12.1453 15.7839 11.1085 16.0864 10.0001 16.0864V19.9994C11.8141 19.9994 13.5258 19.511 15.0002 18.6599Z" fill="#0F993E"/>
<path d="M3.91316 10.0001C3.91316 8.89195 4.21559 7.85521 4.73517 6.95925L1.34426 5.00482C0.488427 6.47461 6.10352e-05 8.18154 6.10352e-05 10.0001C6.10352e-05 11.8187 0.488427 13.5256 1.34426 14.9954L4.73517 13.041C4.21559 12.145 3.91316 11.1083 3.91316 10.0001Z" fill="#FFD500"/>
<path d="M9.99878 3.91299C11.4649 3.91299 12.8115 4.43392 13.8634 5.30043C14.1229 5.51418 14.5 5.49875 14.7377 5.26106L16.5842 3.4146C16.8539 3.14492 16.8347 2.70348 16.5466 2.45356C14.7843 0.924714 12.4913 0 9.99878 0C6.30107 0 3.06845 2.01392 1.34283 5.00458L4.73374 6.959C5.78786 5.14133 7.75054 3.91299 9.99878 3.91299Z" fill="#FF4B26"/>
<path d="M13.8647 5.30043C14.1242 5.51418 14.5014 5.49875 14.7391 5.26106L16.5856 3.4146C16.8552 3.14492 16.836 2.70348 16.548 2.45356C14.7856 0.924675 12.4926 0 10.0001 0V3.91299C11.4662 3.91299 12.8129 4.43392 13.8647 5.30043Z" fill="#D93F21"/>
</svg>
