<svg width="20" height="20" viewBox="0 0 20 20" fill="none" xmlns="http://www.w3.org/2000/svg">
<path d="M10 10C8.02786 10 6.42857 8.40071 6.42857 6.42857V5.71429C6.42857 3.74214 8.02786 2.14286 10 2.14286C11.9721 2.14286 13.5714 3.74214 13.5714 5.71429V6.42857C13.5714 8.40071 11.9721 10 10 10Z" stroke="#9095A1" stroke-width="1.71429" stroke-miterlimit="10" stroke-linecap="square"/>
<path d="M17.1429 16.3629C17.1429 15.0771 16.2879 13.9464 15.0471 13.6086C13.6943 13.2393 11.8471 12.8571 10 12.8571C8.15286 12.8571 6.30572 13.2393 4.95286 13.6086C3.71215 13.9464 2.85715 15.0771 2.85715 16.3629L2.85715 17.8571L17.1429 17.8571V16.3629Z" stroke="#9095A1" stroke-width="1.71429" stroke-miterlimit="10" stroke-linecap="square"/>
</svg>
